<?xml version="1.0" encoding="utf-8"?>
<!-- Generator: Adobe Illustrator 20.1.0, SVG Export Plug-In . SVG Version: 6.00 Build 0)  -->
<svg version="1.1" id="Layer_1" xmlns="http://www.w3.org/2000/svg" xmlns:xlink="http://www.w3.org/1999/xlink" x="0px" y="0px"
	 viewBox="0 0 46.4 33.74" style="enable-background:new 0 0 46.4 33.74;" xml:space="preserve">
<g>
	<path d="M44.86,6.54L4,0v3.46L1.6,3.27v3.27H0v27.2h46.4V6.54H44.86z M5.6,1.88L27.04,5.3L5.6,3.59V1.88z M3.2,5L4,5.07v0L9.41,5.5
		l12.96,1.04H3.2V5z M44.8,32.14H1.6v-24h43.2V32.14z M44.8,32.14"/>
	<path d="M5.2,14.54c1.54,0,2.8-1.26,2.8-2.8c0-1.54-1.26-2.8-2.8-2.8c-1.54,0-2.8,1.26-2.8,2.8C2.4,13.28,3.66,14.54,5.2,14.54
		L5.2,14.54z M5.2,10.54c0.66,0,1.2,0.53,1.2,1.2c0,0.66-0.53,1.2-1.2,1.2c-0.66,0-1.2-0.54-1.2-1.2C4,11.07,4.54,10.54,5.2,10.54
		L5.2,10.54z M5.2,10.54"/>
	<path d="M38.4,11.74c0,1.54,1.26,2.8,2.8,2.8c1.54,0,2.8-1.26,2.8-2.8c0-1.54-1.26-2.8-2.8-2.8C39.66,8.94,38.4,10.2,38.4,11.74
		L38.4,11.74z M42.4,11.74c0,0.66-0.53,1.2-1.2,1.2c-0.66,0-1.2-0.54-1.2-1.2c0-0.66,0.54-1.2,1.2-1.2
		C41.86,10.54,42.4,11.07,42.4,11.74L42.4,11.74z M42.4,11.74"/>
	<path d="M5.2,25.74c-1.54,0-2.8,1.25-2.8,2.8c0,1.54,1.26,2.8,2.8,2.8c1.54,0,2.8-1.25,2.8-2.8C8,26.99,6.74,25.74,5.2,25.74
		L5.2,25.74z M5.2,29.74c-0.66,0-1.2-0.54-1.2-1.2c0-0.66,0.54-1.2,1.2-1.2c0.66,0,1.2,0.54,1.2,1.2C6.4,29.2,5.86,29.74,5.2,29.74
		L5.2,29.74z M5.2,29.74"/>
	<path d="M41.2,25.74c-1.54,0-2.8,1.25-2.8,2.8c0,1.54,1.26,2.8,2.8,2.8c1.54,0,2.8-1.25,2.8-2.8C44,26.99,42.74,25.74,41.2,25.74
		L41.2,25.74z M41.2,29.74c-0.66,0-1.2-0.54-1.2-1.2c0-0.66,0.54-1.2,1.2-1.2c0.66,0,1.2,0.54,1.2,1.2
		C42.4,29.2,41.86,29.74,41.2,29.74L41.2,29.74z M41.2,29.74"/>
	<path d="M25.24,31.14c0.1-0.02,0.2-0.04,0.3-0.05c0.29-0.06,0.59-0.14,0.87-0.23c0.13-0.04,0.27-0.09,0.39-0.13
		c0.17-0.06,0.34-0.12,0.5-0.19c0.14-0.05,0.29-0.11,0.43-0.17c0.16-0.08,0.31-0.15,0.47-0.23c0.22-0.11,0.43-0.22,0.64-0.35
		c0.03-0.02,0.07-0.04,0.1-0.05h8.75l-0.08-0.87c-0.01-0.11-0.02-0.22-0.02-0.33c0-1.99,1.61-3.6,3.6-3.6
		c0.11,0,0.22,0.01,0.33,0.02l0.87,0.08v-9.79l-0.87,0.08c-0.11,0.01-0.22,0.02-0.33,0.02c-1.98,0-3.6-1.61-3.6-3.6
		c0-0.11,0.01-0.22,0.02-0.33l0.08-0.87h-8.76c-1.68-1.01-3.64-1.6-5.74-1.6c-2.1,0-4.06,0.59-5.74,1.6H8.7l0.08,0.87
		c0.01,0.11,0.02,0.22,0.02,0.33c0,1.98-1.62,3.6-3.6,3.6c-0.11,0-0.22,0-0.33-0.02L4,15.24v9.79l0.87-0.08
		c0.11-0.01,0.22-0.02,0.33-0.02c1.99,0,3.6,1.62,3.6,3.6c0,0.11-0.01,0.22-0.02,0.32L8.7,29.74h8.74c0.13,0.07,0.25,0.15,0.39,0.22
		c0.04,0.02,0.08,0.04,0.12,0.06c0.26,0.14,0.52,0.27,0.79,0.38c0.06,0.03,0.12,0.05,0.18,0.08c0.3,0.13,0.61,0.24,0.93,0.34
		c0.01,0,0.02,0,0.02,0.01c0.32,0.1,0.66,0.18,0.99,0.25c0.08,0.02,0.16,0.03,0.23,0.04c0.26,0.05,0.52,0.09,0.78,0.12
		c0.1,0.01,0.19,0.02,0.28,0.03c0.34,0.03,0.68,0.05,1.03,0.05c0.34,0,0.67-0.02,1.01-0.05c0.11-0.01,0.21-0.02,0.31-0.03
		C24.76,31.23,25,31.19,25.24,31.14L25.24,31.14z M20.98,29.47c-0.05-0.01-0.1-0.03-0.15-0.04c-0.26-0.06-0.52-0.14-0.77-0.23
		c-0.12-0.04-0.23-0.08-0.35-0.13c-0.18-0.07-0.36-0.15-0.54-0.23c-0.09-0.04-0.18-0.08-0.26-0.13l2.12-1.05
		c0.46-0.23,0.75-0.68,0.75-1.2v-1.32l-0.48-0.21c-1.02-0.44-1.69-1.29-2.04-2.59l-0.11-0.43l-0.42-0.13
		c-0.25-0.08-0.42-0.3-0.42-0.56v-0.7c0-0.25,0.16-0.43,0.32-0.52l0.38-0.2l0.05-0.43c0.07-0.64,0.21-1.23,0.43-1.76
		c0.09-0.22,0.17-0.39,0.23-0.53c0.22-0.46,0.31-0.73,0.29-1.17c0.8,0.41,1.75,0.59,2.76,0.51c0.11-0.01,0.21-0.02,0.32-0.02
		c2.55,0,3.79,0.92,4.03,2.97l0.05,0.42l0.37,0.2c0.16,0.08,0.32,0.26,0.32,0.52v0.7c0,0.26-0.17,0.48-0.42,0.56L27,21.92
		l-0.11,0.43c-0.35,1.3-1.02,2.15-2.04,2.59l-0.48,0.21v1.33c0,0.5,0.28,0.96,0.73,1.19l2.22,1.14c-0.03,0.01-0.06,0.03-0.09,0.04
		c-0.28,0.13-0.56,0.25-0.84,0.34c-0.04,0.01-0.07,0.03-0.11,0.04C24.57,29.79,22.72,29.87,20.98,29.47L20.98,29.47z M31.03,12.14
		h4.99c0.2,2.55,2.23,4.59,4.79,4.79v6.43c-2.55,0.2-4.59,2.24-4.79,4.79h-4.99c0.01-0.01,0.02-0.02,0.03-0.04
		c0.14-0.14,0.27-0.28,0.39-0.42c0.13-0.14,0.25-0.27,0.37-0.41c0.04-0.05,0.08-0.11,0.13-0.17c1.31-1.64,2.14-3.62,2.37-5.74
		c0-0.03,0.01-0.06,0.01-0.08c0.04-0.38,0.06-0.75,0.06-1.14c0-0.38-0.02-0.77-0.05-1.14c0-0.03-0.01-0.05-0.01-0.08
		c-0.23-2.13-1.06-4.11-2.38-5.75c-0.04-0.05-0.08-0.11-0.13-0.17c-0.12-0.14-0.25-0.27-0.37-0.41c-0.13-0.14-0.25-0.29-0.39-0.43
		C31.05,12.16,31.04,12.15,31.03,12.14L31.03,12.14z M28.33,12.04c0.66,0.42,1.26,0.91,1.79,1.45c0.07,0.07,0.14,0.15,0.21,0.23
		c0.17,0.19,0.34,0.39,0.49,0.59c0.08,0.11,0.16,0.21,0.24,0.32c0.14,0.2,0.28,0.42,0.41,0.64c0.05,0.09,0.12,0.19,0.17,0.29
		c0.16,0.3,0.31,0.61,0.44,0.93c0.05,0.12,0.09,0.25,0.13,0.37c0.08,0.22,0.16,0.45,0.22,0.68c0.04,0.13,0.07,0.27,0.1,0.4
		c0.06,0.24,0.11,0.49,0.15,0.74c0.02,0.12,0.04,0.23,0.05,0.36c0.04,0.37,0.07,0.74,0.07,1.12c0,0.38-0.03,0.75-0.07,1.12
		c-0.01,0.12-0.04,0.23-0.05,0.35c-0.04,0.25-0.09,0.5-0.15,0.74c-0.03,0.13-0.07,0.27-0.1,0.4c-0.07,0.23-0.14,0.46-0.22,0.68
		c-0.05,0.12-0.09,0.25-0.14,0.37c-0.13,0.32-0.27,0.63-0.44,0.93c-0.06,0.1-0.12,0.19-0.18,0.28c-0.13,0.22-0.26,0.43-0.41,0.64
		c-0.08,0.11-0.16,0.21-0.24,0.32c-0.16,0.2-0.32,0.4-0.49,0.59c-0.07,0.08-0.14,0.16-0.21,0.23c-0.38,0.39-0.8,0.74-1.25,1.07
		c-0.14-0.1-0.27-0.2-0.42-0.27l-2.48-1.27v-0.14c1.12-0.63,1.91-1.65,2.36-3.03c0.69-0.38,1.12-1.1,1.12-1.91v-0.69
		c0-0.66-0.3-1.28-0.81-1.69c-0.34-1.91-1.61-4.01-5.56-4.01c-0.15,0-0.3,0-0.45,0.01c-0.59,0.05-1.44,0-2.18-0.5
		c-0.28-0.19-0.49-0.37-0.61-0.54c-0.26-0.33-0.71-0.45-1.1-0.29c-0.39,0.16-0.62,0.55-0.57,0.97c0.03,0.26,0.08,0.57,0.14,0.91
		c0.13,0.64,0.13,0.64-0.05,1.02c-0.07,0.16-0.16,0.34-0.27,0.6c-0.23,0.56-0.39,1.18-0.49,1.83c-0.5,0.41-0.8,1.03-0.8,1.68v0.69
		c0,0.81,0.44,1.53,1.12,1.91c0.45,1.38,1.24,2.4,2.36,3.03v0.14l-2.57,1.27c-0.08,0.04-0.16,0.11-0.24,0.16
		c-0.38-0.3-0.75-0.61-1.08-0.95c-0.07-0.07-0.14-0.15-0.21-0.23c-0.17-0.19-0.33-0.39-0.49-0.59c-0.08-0.11-0.16-0.21-0.24-0.32
		c-0.15-0.2-0.28-0.42-0.41-0.64c-0.06-0.09-0.12-0.18-0.17-0.28c-0.16-0.3-0.31-0.61-0.44-0.93c-0.05-0.12-0.09-0.25-0.13-0.37
		c-0.08-0.22-0.16-0.45-0.22-0.68c-0.04-0.13-0.07-0.27-0.11-0.4c-0.05-0.24-0.1-0.49-0.14-0.74c-0.02-0.12-0.04-0.23-0.06-0.35
		c-0.04-0.37-0.07-0.74-0.07-1.12s0.03-0.75,0.07-1.12c0.01-0.12,0.04-0.24,0.05-0.36c0.04-0.25,0.08-0.5,0.14-0.74
		c0.03-0.13,0.07-0.27,0.1-0.4c0.07-0.23,0.14-0.45,0.23-0.68c0.04-0.12,0.08-0.25,0.13-0.36c0.13-0.32,0.28-0.63,0.44-0.93
		c0.05-0.1,0.12-0.19,0.17-0.29c0.13-0.22,0.26-0.43,0.41-0.64c0.08-0.11,0.16-0.21,0.24-0.32c0.15-0.2,0.32-0.4,0.49-0.59
		c0.07-0.07,0.14-0.15,0.21-0.23c0.53-0.55,1.12-1.04,1.78-1.46c1.49-0.95,3.24-1.5,5.13-1.5C25.09,10.54,26.84,11.09,28.33,12.04
		L28.33,12.04z M10.39,28.14c-0.2-2.55-2.24-4.59-4.79-4.79v-6.43c2.55-0.19,4.59-2.23,4.79-4.79h4.98
		c-0.01,0.01-0.02,0.03-0.03,0.04c-0.14,0.13-0.26,0.28-0.4,0.42c-0.12,0.14-0.25,0.27-0.37,0.41c-0.04,0.05-0.08,0.12-0.13,0.17
		c-1.31,1.64-2.14,3.62-2.38,5.74c0,0.03-0.01,0.05-0.01,0.08C12.02,19.37,12,19.75,12,20.14c0,0.39,0.02,0.77,0.06,1.14
		c0,0.02,0.01,0.05,0.01,0.08c0.23,2.12,1.06,4.1,2.37,5.74c0.05,0.05,0.09,0.11,0.13,0.17c0.12,0.14,0.25,0.27,0.37,0.41
		c0.13,0.14,0.26,0.29,0.4,0.42c0.01,0.01,0.02,0.02,0.03,0.04H10.39z M10.39,28.14"/>
</g>
</svg>
