<?xml version="1.0" encoding="utf-8"?>
<!-- Generator: Adobe Illustrator 20.1.0, SVG Export Plug-In . SVG Version: 6.00 Build 0)  -->
<svg version="1.1" id="Layer_1" xmlns="http://www.w3.org/2000/svg" xmlns:xlink="http://www.w3.org/1999/xlink" x="0px" y="0px"
	 viewBox="0 0 48 48" style="enable-background:new 0 0 48 48;" xml:space="preserve">
<g>
	<path d="M39.64,0H8.35L0,13.37V48h48V13.37L39.64,0z M38.76,1.6l7,11.2H29.6V1.6H38.76z M24,1.6h4v11.2h-8V1.6H24z M20,14.4h0.8
		c0,0.44,0.36,0.8,0.8,0.8c0.44,0,0.8-0.36,0.8-0.8h3.2c0,0.44,0.36,0.8,0.8,0.8c0.44,0,0.8-0.36,0.8-0.8H28v2.87l-0.8-0.8l-3.2,3.2
		l-3.2-3.2l-0.8,0.8V14.4z M9.24,1.6h9.16v11.2H2.24L9.24,1.6z M20,46.4v-2.07l0.8,0.8l3.2-3.2l3.2,3.2l0.8-0.8v2.07H20z M29.6,46.4
		v-5.93l-2.4,2.4l-3.2-3.2l-3.2,3.2l-2.4-2.4v5.93H1.6v-32h16.8v6.74l2.4-2.4l3.2,3.2l3.2-3.2l2.4,2.4V14.4h16.8v32H29.6z
		 M29.6,46.4"/>
	<path d="M16,38.4h16V24H16V38.4z M17.6,25.6h12.8v11.2H17.6V25.6z M17.6,25.6"/>
	<path d="M24.8,33.6H20c-0.44,0-0.8,0.36-0.8,0.8c0,0.45,0.36,0.8,0.8,0.8h4.8c0.44,0,0.8-0.35,0.8-0.8
		C25.6,33.96,25.24,33.6,24.8,33.6L24.8,33.6z M24.8,33.6"/>
	<path d="M28,33.6h-0.8c-0.44,0-0.8,0.36-0.8,0.8c0,0.45,0.36,0.8,0.8,0.8H28c0.44,0,0.8-0.35,0.8-0.8
		C28.8,33.96,28.44,33.6,28,33.6L28,33.6z M28,33.6"/>
	<path d="M28,27.2h-4.8c-0.44,0-0.8,0.36-0.8,0.8c0,0.44,0.36,0.8,0.8,0.8H28c0.44,0,0.8-0.36,0.8-0.8
		C28.8,27.56,28.44,27.2,28,27.2L28,27.2z M28,27.2"/>
	<path d="M28,30.4h-1.6c-0.44,0-0.8,0.36-0.8,0.8c0,0.44,0.36,0.8,0.8,0.8H28c0.44,0,0.8-0.36,0.8-0.8
		C28.8,30.76,28.44,30.4,28,30.4L28,30.4z M28,30.4"/>
	<path d="M20,32h1.6c0.44,0,0.8-0.36,0.8-0.8c0-0.44-0.35-0.8-0.8-0.8H20c-0.44,0-0.8,0.36-0.8,0.8C19.2,31.64,19.56,32,20,32L20,32
		z M20,32"/>
	<path d="M20,28.8h0.8c0.44,0,0.8-0.36,0.8-0.8c0-0.44-0.36-0.8-0.8-0.8H20c-0.44,0-0.8,0.36-0.8,0.8C19.2,28.44,19.56,28.8,20,28.8
		L20,28.8z M20,28.8"/>
	<path d="M24.57,31.77c0.15-0.15,0.24-0.36,0.24-0.57c0-0.21-0.09-0.42-0.24-0.57c-0.3-0.3-0.84-0.3-1.13,0
		c-0.14,0.15-0.23,0.35-0.23,0.57c0,0.22,0.09,0.42,0.23,0.57C23.59,31.91,23.79,32,24,32C24.21,32,24.41,31.91,24.57,31.77
		L24.57,31.77z M24.57,31.77"/>
	<path d="M24.8,2.4c0,0.45-0.36,0.8-0.8,0.8s-0.8-0.36-0.8-0.8c0-0.44,0.36-0.8,0.8-0.8S24.8,1.96,24.8,2.4L24.8,2.4z M24.8,2.4"/>
	<path d="M22.4,4.8c0,0.44-0.35,0.8-0.8,0.8c-0.45,0-0.8-0.36-0.8-0.8c0-0.44,0.36-0.8,0.8-0.8C22.04,4,22.4,4.36,22.4,4.8L22.4,4.8
		z M22.4,4.8"/>
	<path d="M22.4,9.6c0,0.44-0.35,0.8-0.8,0.8c-0.45,0-0.8-0.36-0.8-0.8c0-0.45,0.36-0.8,0.8-0.8C22.04,8.8,22.4,9.16,22.4,9.6
		L22.4,9.6z M22.4,9.6"/>
	<path d="M24.8,7.2C24.8,7.64,24.44,8,24,8s-0.8-0.36-0.8-0.8c0-0.44,0.36-0.8,0.8-0.8S24.8,6.76,24.8,7.2L24.8,7.2z M24.8,7.2"/>
	<path d="M27.2,4.8c0,0.44-0.35,0.8-0.8,0.8c-0.44,0-0.8-0.36-0.8-0.8c0-0.44,0.36-0.8,0.8-0.8C26.84,4,27.2,4.36,27.2,4.8L27.2,4.8
		z M27.2,4.8"/>
	<path d="M27.2,9.6c0,0.44-0.35,0.8-0.8,0.8c-0.44,0-0.8-0.36-0.8-0.8c0-0.45,0.36-0.8,0.8-0.8C26.84,8.8,27.2,9.16,27.2,9.6
		L27.2,9.6z M27.2,9.6"/>
	<path d="M24.8,12c0,0.44-0.36,0.8-0.8,0.8s-0.8-0.36-0.8-0.8c0-0.44,0.36-0.8,0.8-0.8S24.8,11.56,24.8,12L24.8,12z M24.8,12"/>
	<path d="M24.8,16.8c0,0.44-0.36,0.8-0.8,0.8s-0.8-0.36-0.8-0.8c0-0.44,0.36-0.8,0.8-0.8S24.8,16.36,24.8,16.8L24.8,16.8z
		 M24.8,16.8"/>
</g>
</svg>
