<?xml-stylesheet type="text/css" href="../../css/custom.css"?>
<svg version="1.1" xmlns="http://www.w3.org/2000/svg" xmlns:xlink="http://www.w3.org/1999/xlink" x="0px" y="0px"
	 viewBox="-49 141 512 512" style="enable-background:new -49 141 512 512;" xml:space="preserve" class="svg-reason svg-buckler">
<path d="M207,653c-4.27,0-8.54-1.17-12.27-3.52L36.02,549.53c-6.27-3.95-10.28-10.73-10.72-18.13L3.75,165.38l0,0
	c-0.37-6.31,1.9-12.56,6.23-17.15c4.33-4.59,10.44-7.23,16.76-7.23h360.52c6.32,0,12.42,2.64,16.75,7.23
	c4.33,4.59,6.6,10.85,6.23,17.15L388.69,531.4c-0.44,7.4-4.44,14.18-10.72,18.13l-158.71,99.95C215.54,651.83,211.27,653,207,653z
	 M24.12,164.18L45.67,530.2c0.05,0.84,0.51,1.62,1.22,2.07l158.71,99.95c0.85,0.54,1.95,0.54,2.8,0l158.7-99.95
	c0.72-0.45,1.17-1.22,1.22-2.07l21.55-366.01c0.06-0.94-0.36-1.58-0.71-1.96s-0.98-0.83-1.91-0.83H26.74
	c-0.94,0-1.56,0.45-1.91,0.83C24.48,162.6,24.06,163.25,24.12,164.18L24.12,164.18z"/>
<path d="M207,590.4c-1.89,0-3.77-0.52-5.44-1.57L81.34,513.11c-2.8-1.76-4.57-4.78-4.75-8.09L60.61,206.5
	c-0.15-2.8,0.86-5.53,2.78-7.56c1.93-2.03,4.6-3.18,7.4-3.18H343.2c2.8,0,5.48,1.15,7.4,3.18c1.93,2.03,2.93,4.77,2.78,7.56
	l-15.98,298.52c-0.18,3.31-1.95,6.32-4.75,8.09l-120.23,75.72C210.77,589.87,208.89,590.4,207,590.4z M96.68,498.66L207,568.14
	l110.32-69.48l15.12-282.51H81.56L96.68,498.66z"/>
<path d="M221.73,253.33H111.25c-5.63,0-10.2-4.57-10.2-10.2c0-5.63,4.57-10.2,10.2-10.2h110.48c5.63,0,10.2,4.57,10.2,10.2
	C231.93,248.77,227.36,253.33,221.73,253.33z"/>
<path d="M269.53,253.33h-11.68c-5.63,0-10.2-4.57-10.2-10.2c0-5.63,4.57-10.2,10.2-10.2h11.68c5.63,0,10.2,4.57,10.2,10.2
	C279.73,248.77,275.17,253.33,269.53,253.33z"/>
</svg>