<?xml-stylesheet type="text/css" href="../../css/custom.css"?>
<svg version="1.1" id="Layer_1" xmlns="http://www.w3.org/2000/svg" xmlns:xlink="http://www.w3.org/1999/xlink" x="0px" y="0px"
	 viewBox="0 0 46.4 46.6" style="enable-background:new 0 0 46.4 46.6;" xml:space="preserve" class="svg-criterion">
<g>
	<path d="M34.3,4.2c-0.4-1.8-2-3.2-3.9-3.2c-0.4,0-0.8,0.4-0.8,0.8c0,0.4,0.4,0.8,0.8,0.8c1.3,0,2.4,1.1,2.4,2.4s-1.1,2.4-2.4,2.4
		c-0.4,0-0.8,0.4-0.8,0.8C29.6,8.6,30,9,30.4,9c1.9,0,3.5-1.4,3.9-3.2h10.5v5.6H1.6V5.8h13.6C15.6,5.8,16,5.4,16,5
		c0-0.4-0.4-0.8-0.8-0.8h-1.5C14.1,3.3,15,2.6,16,2.6c1.3,0,2.4,1.1,2.4,2.4S17.3,7.4,16,7.4c-0.4,0-0.8,0.4-0.8,0.8
		C15.2,8.6,15.6,9,16,9c2.2,0,4-1.8,4-4s-1.8-4-4-4c-1.9,0-3.5,1.4-3.9,3.2H0v42.4h46.4V4.2H34.3z M24,13h9.6v9.6H24V13z M33.6,33.8
		H24v-9.6h9.6V33.8z M12.8,24.2h9.6v9.6h-9.6V24.2z M12.8,13h9.6v9.6h-9.6V13z M1.6,13.8V13h9.6v9.6H1.6V13.8z M1.6,24.2h9.6v9.6
		H1.6V24.2z M1.6,45v-9.6h9.6V45H1.6z M12.8,45v-9.6h9.6V45H12.8z M24,45v-9.6h9.6V45H24z M44.8,45h-9.6v-9.6h9.6V45z M44.8,33.8
		h-9.6v-9.6h9.6V33.8z M35.2,22.6V13h9.6v9.6H35.2z M35.2,22.6"/>
	<path d="M20.8,2.6c1.3,0,2.4,1.1,2.4,2.4s-1.1,2.4-2.4,2.4c-0.4,0-0.8,0.4-0.8,0.8C20,8.6,20.4,9,20.8,9c2.2,0,4-1.8,4-4
		s-1.8-4-4-4C20.4,1,20,1.4,20,1.8C20,2.2,20.4,2.6,20.8,2.6L20.8,2.6z M20.8,2.6"/>
	<path d="M25.6,2.6C26.9,2.6,28,3.7,28,5s-1.1,2.4-2.4,2.4c-0.4,0-0.8,0.4-0.8,0.8c0,0.4,0.4,0.8,0.8,0.8c2.2,0,4-1.8,4-4
		s-1.8-4-4-4c-0.4,0-0.8,0.4-0.8,0.8C24.8,2.2,25.2,2.6,25.6,2.6L25.6,2.6z M25.6,2.6"/>
	<path d="M25,32.8c0.2,0.2,0.4,0.2,0.6,0.2c0.2,0,0.4-0.1,0.6-0.2l2.6-2.6l2.6,2.6c0.2,0.2,0.4,0.2,0.6,0.2s0.4-0.1,0.6-0.2
		c0.3-0.3,0.3-0.8,0-1.1L29.9,29l2.6-2.6c0.3-0.3,0.3-0.8,0-1.1c-0.3-0.3-0.8-0.3-1.1,0l-2.6,2.6l-2.6-2.6c-0.3-0.3-0.8-0.3-1.1,0
		c-0.3,0.3-0.3,0.8,0,1.1l2.6,2.6L25,31.6C24.7,31.9,24.7,32.5,25,32.8L25,32.8z M25,32.8"/>
</g>
</svg>
