<?xml-stylesheet type="text/css" href="../../css/custom.css"?>
<svg version="1.1" id="Layer_1" xmlns="http://www.w3.org/2000/svg" xmlns:xlink="http://www.w3.org/1999/xlink" x="0px" y="0px"
	 viewBox="-49 141 512 512" style="enable-background:new -49 141 512 512;" xml:space="preserve" class="svg-criterion">
<g transform="translate(1 1)">
	<path d="M308.4,652H103.6C89.1,652,78,640.9,78,626.4V233c0-23,2.6-42.7,8.5-67.4c0.9-3.4,3.4-5.1,6-6l53.8-11.9
		c38.4-8.5,79.4-8.5,118.6,0l53.8,11.9c3.4,0,6,2.6,6.8,6c6,24.7,8.5,44.4,8.5,67.4v393.4C334,640.9,322.9,652,308.4,652z
		 M101.9,175c-5.1,20.5-6.8,37.5-6.8,58v393.4c0,5.1,3.4,8.5,8.5,8.5h204.8c5.1,0,8.5-3.4,8.5-8.5V233c0-19.6-1.7-37.5-6.8-58
		l-48.6-11.1c-35.8-8.5-74.2-8.5-110.9,0L101.9,175z"/>
	<path d="M282.8,336.3c-0.9,0-1.7,0-1.7,0c-44.4-11.1-105.8-11.1-149.3,0c-2.6,0.9-5.1,0-6.8-1.7c-1.7-1.7-3.4-3.4-3.4-6l-8.5-93.9
		c0-4.3,1.7-7.7,6-8.5c35.8-11.9,135.7-11.9,175.8,0c4.3,0.9,6.8,5.1,6,8.5l-8.5,93.9c0,2.6-1.7,5.1-3.4,6
		C286.2,335.4,284.5,336.3,282.8,336.3z M206,310.7c23.9,0,47.8,2.6,69.1,6.8l6.8-76.8c-38.4-8.5-116.9-8.5-152.7,0l6.8,76.8
		C157.4,313.2,182.1,310.7,206,310.7z"/>
	<path d="M206,609.3c-29,0-58-2.6-87-8.5c-4.3-0.9-6.8-4.3-6.8-8.5v-59.7c0-14.5,11.1-25.6,25.6-25.6h136.5
		c14.5,0,25.6,11.1,25.6,25.6v59.7c0,4.3-2.6,7.7-6.8,8.5C264,606.8,235,609.3,206,609.3z M129.2,585.4c51.2,9.4,102.4,9.4,153.6,0
		v-52.9c0-5.1-3.4-8.5-8.5-8.5H137.7c-5.1,0-8.5,3.4-8.5,8.5V585.4z M291.3,592.3L291.3,592.3L291.3,592.3z"/>
	<path d="M419.3,438.7c-1.7,0-3.4-0.9-4.3-1.7l-93.9-59.7c-2.6-0.9-4.3-4.3-4.3-6.8v-42.7c0-3.4,1.7-6,4.3-7.7c2.6-1.7,6-1.7,8.5,0
		l93.9,59.7c2.6,1.7,4.3,4.3,4.3,6.8v42.7c0,3.4-1.7,6-4.3,7.7C421.9,438.7,421,438.7,419.3,438.7z M334,366.1l76.8,48.6v-22.2
		L334,343.9V366.1z"/>
	<path d="M419.3,566.7c-1.7,0-3.4-0.9-4.3-1.7l-93.9-59.7c-2.6-0.9-4.3-4.3-4.3-6.8v-42.7c0-3.4,1.7-6,4.3-7.7c2.6-1.7,6-1.7,8.5,0
		l93.9,59.7c2.6,1.7,4.3,4.3,4.3,6.8v42.7c0,3.4-1.7,6-4.3,7.7C421.9,566.7,421,566.7,419.3,566.7z M334,494.1l76.8,48.6v-22.2
		L334,471.9V494.1z"/>
	<path d="M-7.3,430.1c-1.7,0-2.6,0-4.3-0.9c-2.6-1.7-4.3-4.3-4.3-7.7v-42.7c0-2.6,1.7-6,4.3-6.8l93.9-59.7c2.6-1.7,6-1.7,8.5,0
		c2.6,1.7,4.3,4.3,4.3,7.7v42.7c0,2.6-1.7,6-4.3,6.8l-93.9,59.7C-3.9,429.3-5.6,430.1-7.3,430.1z M1.2,383.2v22.2L78,356.7v-22.2
		L1.2,383.2z"/>
	<path d="M-7.3,566.7c-1.7,0-2.6,0-4.3-0.9c-2.6-1.7-4.3-4.3-4.3-7.7v-42.7c0-2.6,1.7-6,4.3-6.8l93.9-59.7c2.6-1.7,6-1.7,8.5,0
		c2.6,1.7,4.3,4.3,4.3,7.7v42.7c0,2.6-1.7,6-4.3,6.8l-93.9,59.7C-3.9,565.8-5.6,566.7-7.3,566.7z M1.2,519.7v22.2L78,493.3v-22.2
		L1.2,519.7z"/>
	<path d="M291.3,481.3h-34.1c-5.1,0-8.5-3.4-8.5-8.5V396c0-2.6,0.9-5.1,3.4-6.8l34.1-25.6c2.6-1.7,6-2.6,8.5-0.9
		c2.6,1.7,5.1,4.3,5.1,7.7v102.4C299.9,477.9,296.5,481.3,291.3,481.3z M265.7,464.3h17.1v-76.8l-17.1,12.8V464.3z"/>
	<path d="M154.8,481.3h-34.1c-5.1,0-8.5-3.4-8.5-8.5V370.4c0-3.4,1.7-6,5.1-7.7c2.6-1.7,6-0.9,8.5,0.9l34.1,25.6
		c2.6,1.7,3.4,4.3,3.4,6.8v76.8C163.3,477.9,159.9,481.3,154.8,481.3z M129.2,464.3h17.1v-64l-17.1-12.8V464.3z"/>
</g>
</svg>
