<?xml version="1.0" encoding="utf-8"?>
<!-- Generator: Adobe Illustrator 20.1.0, SVG Export Plug-In . SVG Version: 6.00 Build 0)  -->
<svg version="1.1" id="Layer_1" xmlns="http://www.w3.org/2000/svg" xmlns:xlink="http://www.w3.org/1999/xlink" x="0px" y="0px"
	 viewBox="0 0 48 35.2" style="enable-background:new 0 0 48 35.2;" xml:space="preserve">
<g>
	<path d="M44.63,0H3.38C1.51,0,0,1.51,0,3.38v28.45c0,1.86,1.51,3.37,3.38,3.37h41.25c1.86,0,3.38-1.51,3.38-3.37V3.38
		C48,1.51,46.49,0,44.63,0L44.63,0z M46.4,31.83c0,0.98-0.79,1.77-1.77,1.77H3.38c-0.98,0-1.77-0.8-1.77-1.77V3.38
		c0-0.98,0.79-1.77,1.77-1.77h41.25c0.98,0,1.77,0.79,1.77,1.77V31.83z M46.4,31.83"/>
	<path d="M4,29.6h8.8v-6.4H4V29.6z M5.6,24.8h5.6V28H5.6V24.8z M5.6,24.8"/>
	<path d="M14.4,29.6h8.8v-6.4h-8.8V29.6z M16,24.8h5.6V28H16V24.8z M16,24.8"/>
	<path d="M24.8,29.6h8.8v-6.4h-8.8V29.6z M26.4,24.8H32V28h-5.6V24.8z M26.4,24.8"/>
	<path d="M35.2,29.6H44v-6.4h-8.8V29.6z M36.8,24.8h5.6V28h-5.6V24.8z M36.8,24.8"/>
	<path d="M5.8,16H16.6c0.99,0,1.8-0.81,1.8-1.81V6.6c0-1-0.81-1.8-1.8-1.8H5.8C4.81,4.8,4,5.61,4,6.6v7.59C4,15.19,4.81,16,5.8,16
		L5.8,16z M8.8,11.2H5.6V9.6h3.2V11.2z M5.6,14.19V12.8h3.2v1.39c0,0.07,0.01,0.14,0.02,0.2H5.8C5.69,14.4,5.6,14.31,5.6,14.19
		L5.6,14.19z M16.8,11.2h-3.2V9.8c0-0.11,0.09-0.2,0.2-0.2h2.79c0.07,0,0.13-0.02,0.2-0.02V11.2z M16.6,14.4h-3.02
		c0.01-0.07,0.02-0.13,0.02-0.2V12.8h3.2v1.39C16.8,14.31,16.71,14.4,16.6,14.4L16.6,14.4z M16.6,6.4c0.11,0,0.2,0.09,0.2,0.21V7.8
		c0,0.11-0.09,0.2-0.2,0.2H13.8c-1,0-1.8,0.81-1.8,1.8v4.39c0,0.11-0.09,0.2-0.2,0.2H10.6c-0.11,0-0.21-0.09-0.21-0.2V6.6
		c0-0.11,0.09-0.21,0.21-0.21H16.6z M5.8,6.4h3.01C8.81,6.47,8.8,6.54,8.8,6.6V8H5.6V6.6C5.6,6.49,5.69,6.4,5.8,6.4L5.8,6.4z
		 M5.8,6.4"/>
	<path d="M25.6,6.4h7.2c0.44,0,0.8-0.36,0.8-0.8c0-0.44-0.36-0.8-0.8-0.8h-7.2c-0.45,0-0.8,0.36-0.8,0.8
		C24.8,6.04,25.16,6.4,25.6,6.4L25.6,6.4z M25.6,6.4"/>
	<path d="M43.2,4.8H36c-0.44,0-0.8,0.36-0.8,0.8c0,0.44,0.36,0.8,0.8,0.8h7.2c0.44,0,0.8-0.36,0.8-0.8C44,5.16,43.64,4.8,43.2,4.8
		L43.2,4.8z M43.2,4.8"/>
	<path d="M25.6,10.4h0.8c0.45,0,0.8-0.35,0.8-0.8c0-0.44-0.35-0.8-0.8-0.8h-0.8c-0.45,0-0.8,0.36-0.8,0.8
		C24.8,10.04,25.16,10.4,25.6,10.4L25.6,10.4z M25.6,10.4"/>
	<path d="M29.6,8.8c-0.45,0-0.8,0.36-0.8,0.8c0,0.44,0.35,0.8,0.8,0.8h1.6c0.44,0,0.8-0.35,0.8-0.8c0-0.44-0.36-0.8-0.8-0.8H29.6z
		 M29.6,8.8"/>
	<path d="M36,9.6c0-0.44-0.36-0.8-0.8-0.8h-0.8c-0.44,0-0.8,0.36-0.8,0.8c0,0.44,0.36,0.8,0.8,0.8h0.8C35.64,10.4,36,10.04,36,9.6
		L36,9.6z M36,9.6"/>
	<path d="M40,10.4c0.44,0,0.8-0.35,0.8-0.8c0-0.44-0.36-0.8-0.8-0.8h-1.6c-0.44,0-0.8,0.36-0.8,0.8c0,0.44,0.36,0.8,0.8,0.8H40z
		 M40,10.4"/>
	<path d="M42.63,9.03C42.49,9.18,42.4,9.39,42.4,9.6c0,0.21,0.09,0.41,0.23,0.57c0.15,0.14,0.35,0.23,0.57,0.23
		c0.21,0,0.42-0.09,0.57-0.23C43.91,10.02,44,9.81,44,9.6c0-0.21-0.09-0.42-0.23-0.57C43.46,8.73,42.93,8.73,42.63,9.03L42.63,9.03z
		 M42.63,9.03"/>
</g>
</svg>
