<?xml-stylesheet type="text/css" href="../../css/custom.css"?>
<svg version="1.1" xmlns="http://www.w3.org/2000/svg" xmlns:xlink="http://www.w3.org/1999/xlink" x="0px" y="0px"
	 viewBox="-49 141 512 512" style="enable-background:new -49 141 512 512;" xml:space="preserve" class="svg-reason svg-cards">
<path d="M463,360.33c0-14.12-11.49-25.61-25.61-25.61h-84.41V232.74c0-14.12-11.49-25.61-25.61-25.61H-23.39
	c-14.12,0-25.61,11.49-25.61,25.61v200.93c0,14.12,11.49,25.61,25.61,25.61h84.41v101.97c0,14.12,11.49,25.61,25.61,25.61h350.75
	c14.12,0,25.61-11.49,25.61-25.61V360.33z M-28.6,433.68V232.74c0-2.87,2.34-5.21,5.21-5.21h350.75c2.87,0,5.21,2.34,5.21,5.21
	v200.93c0,2.87-2.34,5.21-5.21,5.21H-23.39C-26.26,438.89-28.6,436.55-28.6,433.68z M327.36,459.29c14.12,0,25.61-11.49,25.61-25.61
	v-78.56h84.41c2.87,0,5.21,2.34,5.21,5.21v116.02H81.42v-17.06H327.36z M442.6,527.84H81.42v-31.1H442.6V527.84z M437.39,566.47
	H86.64c-2.87,0-5.21-2.34-5.21-5.21v-13.02H442.6v13.02C442.6,564.13,440.26,566.47,437.39,566.47z"/>
<path d="M218.7,322.34c10.9,0,20.71-4.72,27.51-12.22c6.8,7.5,16.61,12.22,27.51,12.22c20.47,0,37.12-16.65,37.12-37.12
	s-16.65-37.12-37.12-37.12c-10.9,0-20.71,4.72-27.51,12.22c-6.8-7.5-16.61-12.22-27.51-12.22c-20.47,0-37.12,16.65-37.12,37.12
	S198.24,322.34,218.7,322.34z M273.72,268.5c9.22,0,16.72,7.5,16.72,16.72s-7.5,16.72-16.72,16.72c-9.22,0-16.72-7.5-16.72-16.72
	S264.5,268.5,273.72,268.5z M218.7,268.5c9.22,0,16.72,7.5,16.72,16.72s-7.5,16.72-16.72,16.72c-9.22,0-16.72-7.5-16.72-16.72
	S209.48,268.5,218.7,268.5z"/>
<path d="M52.54,378.02H3.34c-5.63,0-10.2,4.57-10.2,10.2c0,5.63,4.57,10.2,10.2,10.2h49.21c5.63,0,10.2-4.57,10.2-10.2
	C62.74,382.59,58.18,378.02,52.54,378.02z"/>
<path d="M135.63,378.02H86.43c-5.63,0-10.2,4.57-10.2,10.2c0,5.63,4.57,10.2,10.2,10.2h49.21c5.63,0,10.2-4.57,10.2-10.2
	C145.83,382.59,141.27,378.02,135.63,378.02z"/>
<path d="M218.72,378.02h-49.21c-5.63,0-10.2,4.57-10.2,10.2c0,5.63,4.57,10.2,10.2,10.2h49.21c5.63,0,10.2-4.57,10.2-10.2
	C228.92,382.59,224.35,378.02,218.72,378.02z"/>
<path d="M301.81,378.02H252.6c-5.63,0-10.2,4.57-10.2,10.2c0,5.63,4.57,10.2,10.2,10.2h49.21c5.63,0,10.2-4.57,10.2-10.2
	C312.01,382.59,307.44,378.02,301.81,378.02z"/>
<path d="M15.92,314.15h21.65c11.27,0,20.44-9.17,20.44-20.44v-21.65c0-11.27-9.17-20.44-20.44-20.44H15.92
	c-11.27,0-20.44,9.17-20.44,20.44v21.65C-4.52,304.98,4.65,314.15,15.92,314.15z M15.92,272.01l21.7,0.04l-0.02,21.69
	c0,0-0.01,0-0.02,0l-21.7-0.04L15.92,272.01z"/>
</svg>