<?xml-stylesheet type="text/css" href="../../css/custom.css"?>
<svg version="1.1" xmlns="http://www.w3.org/2000/svg" xmlns:xlink="http://www.w3.org/1999/xlink" x="0px" y="0px"
	 viewBox="-49 141 512 512" style="enable-background:new -49 141 512 512;" xml:space="preserve" class="svg-reason svg-clock">
<path d="M361.69,279.56c-0.51-0.51-1.03-1-1.54-1.5l11.76-11.76l3.94,3.94c1.99,1.99,4.6,2.99,7.21,2.99c2.61,0,5.22-1,7.21-2.99
	c3.98-3.98,3.98-10.44,0-14.42l-22.31-22.31c-3.98-3.98-10.44-3.98-14.42,0c-3.98,3.98-3.98,10.44,0,14.42l3.94,3.94l-12.55,12.55
	c-36.27-29.57-80.65-46.56-127.73-48.7v-6.19c14.35-4.38,24.83-17.74,24.83-33.51c0-19.32-15.71-35.03-35.03-35.03
	s-35.03,15.71-35.03,35.03c0,15.77,10.47,29.13,24.83,33.51v6.19c-54.6,2.49-105.58,24.93-144.49,63.83
	C11,320.87-11.76,375.81-11.76,434.24S11,547.61,52.31,588.93C93.63,630.24,148.57,653,207,653s113.37-22.76,154.69-64.07
	s64.07-96.25,64.07-154.69S403,320.88,361.69,279.56z M192.37,176.03c0-8.07,6.56-14.63,14.63-14.63c8.07,0,14.63,6.56,14.63,14.63
	c0,4.1-1.7,7.81-4.43,10.47v-1.53c0-5.63-4.57-10.2-10.2-10.2c-5.63,0-10.2,4.57-10.2,10.2v1.53
	C194.07,183.84,192.37,180.13,192.37,176.03z M207,632.6C97.62,632.6,8.64,543.62,8.64,434.24S97.62,235.88,207,235.88
	s198.36,88.98,198.36,198.36S316.38,632.6,207,632.6z"/>
<path d="M207,249.6c-101.81,0-184.65,82.83-184.65,184.65S105.19,618.89,207,618.89s184.65-82.83,184.65-184.65
	S308.81,249.6,207,249.6z M207,598.49c-90.57,0-164.25-73.68-164.25-164.25S116.43,269.99,207,269.99s164.25,73.68,164.25,164.25
	S297.57,598.49,207,598.49z"/>
<path d="M217.2,409.09V327.8c0-5.63-4.57-10.2-10.2-10.2c-5.63,0-10.2,4.57-10.2,10.2v81.29c-9.93,4.04-16.95,13.79-16.95,25.15
	c0,14.97,12.18,27.15,27.15,27.15c14.97,0,27.15-12.18,27.15-27.15C234.15,422.88,227.13,413.13,217.2,409.09z M207,440.99
	c-3.72,0-6.75-3.03-6.75-6.75c0-3.72,3.03-6.75,6.75-6.75c3.72,0,6.75,3.03,6.75,6.75C213.75,437.96,210.72,440.99,207,440.99z"/>
</svg>