<?xml version="1.0" encoding="utf-8"?>
<!-- Generator: Adobe Illustrator 20.1.0, SVG Export Plug-In . SVG Version: 6.00 Build 0)  -->
<svg version="1.1" id="Layer_1" xmlns="http://www.w3.org/2000/svg" xmlns:xlink="http://www.w3.org/1999/xlink" x="0px" y="0px"
	 viewBox="0 0 35.2 47.2" style="enable-background:new 0 0 35.2 47.2;" xml:space="preserve">
<g>
	<path d="M10.15,22.65c-0.31-0.32-0.82-0.32-1.13,0c-0.31,0.31-0.31,0.82,0,1.13L17,31.77c0.15,0.15,0.35,0.23,0.57,0.23
		c0,0,0.01,0,0.02,0c0.01,0,0.01,0,0.02,0c0.26,0,0.49-0.14,0.63-0.34l7.91-7.91c0.31-0.31,0.31-0.82,0-1.13
		c-0.31-0.31-0.82-0.31-1.13,0l-6.62,6.62V0.8c0-0.44-0.35-0.8-0.8-0.8c-0.45,0-0.8,0.36-0.8,0.8v28.5L10.15,22.65z M10.15,22.65"/>
	<path d="M23.2,12.8c-0.44,0-0.8,0.35-0.8,0.8c0,0.44,0.36,0.8,0.8,0.8h10.4v31.2h-32V14.4H12c0.44,0,0.8-0.35,0.8-0.8
		c0-0.45-0.36-0.8-0.8-0.8H0v34.4h35.2V12.8H23.2z M23.2,12.8"/>
</g>
</svg>
