<?xml-stylesheet type="text/css" href="../../css/custom.css"?>
<svg version="1.1" xmlns="http://www.w3.org/2000/svg" xmlns:xlink="http://www.w3.org/1999/xlink" x="0px" y="0px"
	 viewBox="-49 141 512 512" style="enable-background:new -49 141 512 512;" xml:space="preserve" class="svg-stage svg-filesbox">
<path d="M463,424.2c0-0.8-0.1-1.5-0.3-2.3l-56.4-244.5c-1.1-4.6-5.2-7.9-9.9-7.9h-84.4v-13.7c0-5.6-4.6-10.2-10.2-10.2H112.3
	c-5.6,0-10.2,4.6-10.2,10.2v13.7H17.6c-4.7,0-8.9,3.3-9.9,7.9l-56.4,244.5c-0.2,0.8-0.3,1.5-0.3,2.3l0,0v213.9
	c0,5.6,4.6,10.2,10.2,10.2h491.6c5.6,0,10.2-4.6,10.2-10.2V424.2L463,424.2z M320.9,224.5v38.1H126.3c-2.7,0-5.3,1.1-7.2,3l-26,26
	v-67.1H320.9z M116.1,297.4l0,39.5l-39.5,0L116.1,297.4z M62.3,357.2l64.1,0.1c0,0,0,0,0,0c2.7,0,5.3-1.1,7.2-3c1.9-1.9,3-4.5,3-7.2
	l-0.1-64.1h215.2V414H62.3V357.2z M388.3,190L440,414h-67.9V272.8c0-5.6-4.6-10.2-10.2-10.2h-20.6v-48.3c0-5.6-4.6-10.2-10.2-10.2
	h-19.2V190H388.3z M291.5,166v38.1H122.5V166H291.5z M25.7,190h76.3v14.1H82.9c-5.6,0-10.2,4.6-10.2,10.2V312l-27.8,27.8
	c-1.9,1.9-3,4.5-3,7.2v67H-26L25.7,190z M442.6,628H-28.6V434.4h471.2V628z"/>
<path d="M207,582c26.9,0,48.9-21.9,48.9-48.9s-21.9-48.9-48.9-48.9s-48.9,21.9-48.9,48.9C158.1,560.1,180.1,582,207,582z M207,504.7
	c15.7,0,28.5,12.8,28.5,28.5c0,15.7-12.8,28.5-28.5,28.5s-28.5-12.8-28.5-28.5S191.3,504.7,207,504.7z"/>
<path d="M306.4,376.6h-3.6c-5.6,0-10.2,4.6-10.2,10.2c0,5.6,4.6,10.2,10.2,10.2h3.6c5.6,0,10.2-4.6,10.2-10.2
	C316.6,381.2,312.1,376.6,306.4,376.6z"/>
<path d="M268.2,376.6H107.6c-5.6,0-10.2,4.6-10.2,10.2c0,5.6,4.6,10.2,10.2,10.2h160.6c5.6,0,10.2-4.6,10.2-10.2
	C278.4,381.2,273.8,376.6,268.2,376.6z"/>
</svg>