<?xml-stylesheet type="text/css" href="../../css/custom.css"?>
<svg version="1.1" xmlns="http://www.w3.org/2000/svg" xmlns:xlink="http://www.w3.org/1999/xlink" x="0px" y="0px"
	 viewBox="-49 141 512 512" style="enable-background:new -49 141 512 512;" xml:space="preserve" class="svg-reason svg-piggy">
<path d="M434.8,284.36h-15.22c-6.44,0-12.38,2.17-17.14,5.82c-15.28-29.67-39.72-55.96-70.47-75.45
	c-38.46-24.37-84.28-37.26-132.49-37.26c-58.75,0-114.07,19.26-155.76,54.24c-12.43,10.43-23.2,21.89-32.23,34.15
	c-22.38-1.62-40.09-20.34-40.09-43.12c0-5.63-4.57-10.2-10.2-10.2s-10.2,4.57-10.2,10.2c0,29.85,20.66,54.95,48.42,61.79
	c-13.84,24.72-21.14,51.96-21.14,80.18c0,54.82,27.93,106.27,76.83,141.91v72.81c0,20.46,16.65,37.11,37.11,37.11h35.26
	c20.46,0,37.11-16.65,37.11-37.11v-29.8c22.32,3,45.27,3.09,67.57,0.3v29.51c0,20.46,16.65,37.11,37.11,37.11h35.26
	c20.46,0,37.11-16.65,37.11-37.11v-71.22c26.55-18.84,47.25-42.34,60.85-68.94c4.75,3.63,10.68,5.79,17.1,5.79h15.22
	c15.55,0,28.2-12.65,28.2-28.2v-104.3C463,297.01,450.35,284.36,434.8,284.36z M442.6,416.86c0,4.3-3.5,7.8-7.8,7.8h-15.22
	c-4.3,0-7.8-3.5-7.8-7.8v-1.13c0-4.96-3.57-9.2-8.45-10.05c-4.89-0.85-9.67,1.94-11.35,6.61c-11.58,32.34-34.49,60.73-66.24,82.11
	c-2.81,1.9-4.5,5.07-4.5,8.46v76.57c0,9.21-7.5,16.71-16.71,16.71h-35.26c-9.21,0-16.71-7.5-16.71-16.71v-41.33
	c0-3.01-1.33-5.87-3.63-7.8c-1.85-1.56-4.18-2.4-6.57-2.4c-0.58,0-1.16,0.05-1.74,0.15c-27.57,4.78-56.74,4.66-84.39-0.39
	c-2.98-0.55-6.04,0.26-8.36,2.2c-2.32,1.94-3.67,4.81-3.67,7.83v41.74c0,9.21-7.5,16.71-16.71,16.71H92.22
	c-9.21,0-16.71-7.5-16.71-16.71v-78.07c0-3.35-1.64-6.48-4.39-8.39C25.08,461.11-1.32,414.36-1.32,364.71
	c0-92,90.08-166.84,200.8-166.84c88.19,0,167.35,49.04,192.49,119.27c1.67,4.67,6.46,7.45,11.35,6.61
	c4.89-0.85,8.45-5.09,8.45-10.05v-1.13c0-4.3,3.5-7.8,7.8-7.8h15.22c4.3,0,7.8,3.5,7.8,7.8L442.6,416.86L442.6,416.86z"/>
<path d="M217.98,213.02c-4.73-0.32-9.56-0.48-14.33-0.48c-31.16,0-61.85,6.86-88.76,19.84c-5.07,2.45-7.2,8.54-4.76,13.62
	c1.76,3.65,5.4,5.77,9.19,5.77c1.49,0,3-0.33,4.42-1.01c24.17-11.66,51.8-17.82,79.9-17.82c4.33,0,8.69,0.15,12.97,0.43
	c5.64,0.37,10.48-3.87,10.86-9.49C227.85,218.26,223.6,213.39,217.98,213.02z"/>
<path d="M261.31,220.55c-2.3-0.66-4.67-1.29-7.03-1.88c-5.46-1.37-11,1.97-12.36,7.44c-1.36,5.47,1.97,11,7.44,12.36
	c2.13,0.53,4.26,1.1,6.33,1.69c0.94,0.27,1.89,0.4,2.82,0.4c4.43,0,8.51-2.91,9.8-7.39C269.86,227.75,266.73,222.11,261.31,220.55z"
	/>
<path d="M319.74,264.87c-18.52,0-33.58,15.07-33.58,33.58c0,18.52,15.07,33.58,33.58,33.58s33.58-15.07,33.58-33.58
	C353.32,279.94,338.26,264.87,319.74,264.87z M319.74,311.64c-7.27,0-13.18-5.91-13.18-13.18c0-7.27,5.91-13.18,13.18-13.18
	s13.18,5.91,13.18,13.18C332.92,305.73,327.01,311.64,319.74,311.64z"/>
<path d="M424.11,335.02c-5.63,0-10.2,4.57-10.2,10.2v11.13c0,5.63,4.57,10.2,10.2,10.2s10.2-4.57,10.2-10.2v-11.13
	C434.31,339.59,429.74,335.02,424.11,335.02z"/>
</svg>