<?xml-stylesheet type="text/css" href="../../css/custom.css"?>
<svg version="1.1" id="Layer_1" xmlns="http://www.w3.org/2000/svg" xmlns:xlink="http://www.w3.org/1999/xlink" x="0px" y="0px"
	 viewBox="0 0 38 47" style="enable-background:new 0 0 38 47;" xml:space="preserve" class="svg-criterion">
<style type="text/css">
	.st0{clip-path:url(#SVGID_2_);}
</style>
<g>
	<g>
		<defs>
			<rect id="SVGID_1_" width="38" height="47"/>
		</defs>
		<clipPath id="SVGID_2_">
			<use xlink:href="#SVGID_1_"  style="overflow:visible;"/>
		</clipPath>
		<path class="st0" d="M12.5,10.7c-4.2,0-7.6,3.4-7.6,7.5s3.4,7.6,7.6,7.6s7.6-3.4,7.6-7.6S16.6,10.7,12.5,10.7L12.5,10.7z
			 M12.5,24.2c-3.3,0-5.9-2.7-5.9-6c0-3.3,2.7-5.9,5.9-5.9c3.3,0,5.9,2.7,5.9,5.9C18.4,21.5,15.7,24.2,12.5,24.2L12.5,24.2z
			 M12.5,24.2"/>
		<path class="st0" d="M37.4,11.5C36.5,4.6,32.3,1,25.1,1c-6.9,0-9.9,3-11.3,5.7c-0.5,0-0.9-0.1-1.4-0.1c-7.2,0-11.4,3.6-12.3,10.5
			c-0.3,2.3-0.2,4.7,0.4,7.3c2.7,12.7,9.1,20.3,11,22.3c0.2,0.3,0.6,0.4,0.9,0.4c0.3,0,0.7-0.1,0.9-0.4c1.2-1.3,4.3-4.8,7-10.5
			c1.7,2.6,3.2,4.3,3.8,4.9c0.2,0.3,0.6,0.4,0.9,0.4c0.3,0,0.7-0.1,0.9-0.4c1.9-2,8.4-9.6,11-22.3C37.6,16.2,37.7,13.7,37.4,11.5
			L37.4,11.5z M12.5,45.2C10.7,43.3,4.6,35.9,2.1,24c-0.5-2.4-0.6-4.6-0.3-6.7c0.8-6,4.4-9.1,10.7-9.1c2.6,0,4.8,0.5,6.5,1.6
			c3.1,2,4,5.6,4.2,7.7c0,0.3,0.1,0.5,0.1,0.8c0,0,0,0,0,0.1c0,0.3,0,0.5,0,0.8c0,1.5-0.1,3.2-0.5,4.8
			C20.3,35.9,14.2,43.3,12.5,45.2L12.5,45.2z M20.3,8.8c1.1-1.4,2.9-2.2,4.9-2.2c3.3,0,5.9,2.7,5.9,5.9c0,3.3-2.7,5.9-5.9,5.9
			c-0.1,0-0.2,0-0.4,0c0-0.5-0.1-1-0.1-1.4C24.3,13.3,22.8,10.5,20.3,8.8L20.3,8.8z M35.5,18.4C33,30.3,26.9,37.7,25.1,39.6
			c-0.8-0.8-2.3-2.6-3.9-5.3c1.3-2.9,2.4-6.2,3.2-10c0.3-1.5,0.5-2.9,0.5-4.2c0.1,0,0.2,0,0.3,0c4.2,0,7.6-3.4,7.6-7.6
			c0-4.2-3.4-7.6-7.6-7.6c-2.7,0-5,1.1-6.3,2.9c-1-0.5-2.1-0.9-3.3-1.1c1.6-2.8,4.8-4.3,9.5-4.3c6.3,0,9.9,3.1,10.7,9.1
			C36.1,13.8,36,16,35.5,18.4L35.5,18.4z M35.5,18.4"/>
	</g>
</g>
</svg>
