<?xml-stylesheet type="text/css" href="../../css/custom.css"?>
<svg version="1.1" id="Layer_1" xmlns="http://www.w3.org/2000/svg" xmlns:xlink="http://www.w3.org/1999/xlink" x="0px" y="0px"
	 viewBox="-49 141 512 512" style="enable-background:new -49 141 512 512;" xml:space="preserve" class="svg-criterion">
<g transform="translate(1 1)">
	<path d="M206,281.2c-38.8,0-70.6-31.8-70.6-70.6S167.2,140,206,140s70.6,31.8,70.6,70.6S244.8,281.2,206,281.2z M206,157.7
		c-29.1,0-53,23.8-53,53s23.8,53,53,53s53-23.8,53-53S235.1,157.7,206,157.7z"/>
	<path d="M311.9,652h-44.1c-2.6,0-6.2-1.8-7.9-4.4c-1.8-2.6-1.8-6.2,0-8.8c10.6-20.3,15.9-49.4,16.8-85.6c-45-8.8-95.3-8.8-141.2,0
		c0.9,36.2,6.2,65.3,16.8,85.6c1.8,2.6,0.9,6.2,0,8.8c-0.9,2.6-5.3,4.4-7.9,4.4h-44.1c-3.5,0-6.2-1.8-7.9-4.4
		c-17.7-34.4-27.4-83-27.4-136.8c0-4.4,2.6-7.1,6.2-8.8c5.3-1.8,11.5-2.6,16.8-4.4l0,0c79.4-17.7,150.1-17.7,229.5-0.9
		c7.9,1.8,15.9,3.5,23,5.3c3.5,0.9,6.2,4.4,6.2,8.8c0,53.8-9.7,102.4-27.4,136.8C318.1,650.2,315.5,652,311.9,652z M281,634.3h25.6
		c14.1-30,22.1-70.6,23-116.5c-5.3-0.9-10.6-2.6-15.9-3.5c-75.9-15.9-144.8-15.9-221.6,0.9c-3.5,0.9-6.2,1.8-9.7,2.6
		c0.9,45.9,8.8,86.5,23,116.5H131c-8.8-23-13.2-53-13.2-88.3c0-4.4,2.6-7.9,7.1-8.8c52.1-11.5,111.2-11.5,162.4,0
		c4.4,0.9,7.1,4.4,7.1,8.8C294.3,581.4,289.9,611.4,281,634.3z"/>
	<path d="M400.2,537.2c-0.9,0-1.8,0-2.6-0.9c-139.5-46.8-242.8-46.8-383.1,0c-2.6,0.9-5.3,0.9-7.9-0.9l-35.3-23.8
		c-2.6-1.8-3.5-4.4-3.5-7.9s2.6-6.2,5.3-7.1C4.7,482.5,39.2,471,75.4,463.1L319,218.6c3.5-3.5,8.8-3.5,12.4,0l24.7,24.7
		c1.8,1.8,2.6,3.5,2.6,6.2c0,2.6-0.9,4.4-2.6,6.2L161.9,449.8c92.7-5.3,190.7,10.6,276.3,45.9c2.6,0.9,5.3,4.4,5.3,7.1
		c0,3.5-0.9,6.2-3.5,7.9l-35.3,23.8C403.7,536.4,402,537.2,400.2,537.2z M-5,506.3l18.5,12.4c140.4-45.9,245.4-45.9,385.8,0
		l17.7-12.4c-87.4-32.7-184.5-45.9-277.2-36.2c-3.5,0-7.1-1.8-8.8-5.3c-1.8-3.5-0.9-7.1,1.8-9.7l204.8-204.8L325.2,238L85.9,477.2
		c-0.9,0.9-2.6,1.8-4.4,2.6C51.5,486,21.5,494.9-5,506.3z"/>
	<path d="M73.6,480.7c-1.8,0-4.4-0.9-5.3-1.8c-1.8-1.8-3.5-4.4-3.5-7.1c3.5-71.5,38.8-134.2,90-159.8c9.7-4.4,15.9-14.1,15.9-23.8
		v-15c-21.2-12.4-35.3-36.2-35.3-60.9c0-38.8,31.8-70.6,70.6-70.6s70.6,31.8,70.6,70.6c0,25.6-14.1,48.6-35.3,60.9v15
		c0,6.2,1.8,12.4,6.2,16.8c2.6,3.5,2.6,8.8-0.9,12.4L85.9,477.2c-0.9,0.9-2.6,1.8-4.4,2.6c-0.9,0-1.8,0-2.6,0.9
		c-0.9,0-1.8,0-2.6,0.9C75.4,480.7,74.5,480.7,73.6,480.7z M206,157.7c-29.1,0-53,23.8-53,53c0,20.3,11.5,38.8,30,47.7
		c2.6,1.8,5.3,4.4,5.3,7.9v20.3c0,16.8-9.7,31.8-25.6,39.7c-40.6,20.3-70.6,68.9-78.6,126.2L229,307.7c-3.5-6.2-6.2-14.1-6.2-21.2
		v-20.3c0-3.5,1.8-6.2,5.3-7.9c18.5-8.8,30-27.4,30-47.7C259,181.5,235.1,157.7,206,157.7z"/>
	<path d="M338.4,482.5c-0.9,0-0.9,0-1.8,0c-63.6-15-131.5-18.5-196-12.4c-3.5,0-7.1-1.8-8.8-5.3c-1.8-3.5-0.9-7.1,1.8-9.7
		l131.5-131.5c2.6-3.5,7.9-3.5,11.5-0.9c41.5,30.9,68,87.4,71.5,150.1c0,2.6-0.9,5.3-3.5,7.1C341.9,481.6,340.2,482.5,338.4,482.5z
		 M200.7,449c42.4,0,85.6,4.4,128,13.2c-4.4-49.4-25.6-93.6-57.4-120.1L162.7,450.7C175.1,449.8,187.5,449,200.7,449z"/>
</g>
</svg>
