<?xml-stylesheet type="text/css" href="../../css/custom.css"?>
<svg version="1.1" id="Layer_1" xmlns="http://www.w3.org/2000/svg" xmlns:xlink="http://www.w3.org/1999/xlink" x="0px" y="0px"
	 viewBox="-49 141 512 512" style="enable-background:new -49 141 512 512;" xml:space="preserve" class="svg-criterion">
<g transform="translate(1 1)">
	<path d="M206,652C65.2,652-50,536.8-50,396S65.2,140,206,140s256,115.2,256,256S346.8,652,206,652z M206,157.1
		C74.6,157.1-32.9,264.6-32.9,396S74.6,634.9,206,634.9S444.9,527.4,444.9,396S337.4,157.1,206,157.1z M206,600.8
		c-43.5,0-84.5-13.7-119.5-39.3c-3.4-2.6-4.3-7.7-1.7-11.9c20.5-29.9,68.3-48.6,122-48.6c52.9,0,100.7,18.8,121.2,48.6
		c2.6,3.4,1.7,9.4-1.7,11.9C290.5,587.1,248.7,600.8,206,600.8z M103.6,553c30.7,20.5,65.7,30.7,102.4,30.7s71.7-10.2,102.4-30.7
		c-19.6-21.3-59.7-35-102.4-35C163.3,518,124.1,531.7,103.6,553z M379.2,495.8c-0.9,0-1.7,0-1.7,0c-27.3-6.8-46.1-30.7-46.1-58
		c0-30.7,23-49.5,59.7-49.5c3.4,0,7.7,0,11.1,0.9c4.3,0.9,6.8,4.3,6.8,7.7v3.4c0,2.6,0,4.3,0,6.8c0,34.1-8.5,55.5-23.9,85.3
		C385.2,494.1,382.6,495.8,379.2,495.8z M392,404.5c-12.8,0-42.7,3.4-42.7,32.4c0,17.9,10.2,33.3,26.5,39.3
		c11.9-23.9,18.8-42.7,18.8-70.8c0-0.9,0-0.9,0-1.7C392.9,404.5,392,404.5,392,404.5z M32.8,495.8c-3.4,0-6-1.7-7.7-4.3
		C9.7,461.7,1.2,429.3,1.2,396c0-2.6,0-4.3,0-6.8v-3.4c0-4.3,3.4-6.8,6.8-7.7s7.7-0.9,11.1-0.9c33.3,0,59.7,27.3,59.7,59.7
		c0,27.3-18.8,51.2-46.1,58C34.5,495.8,33.6,495.8,32.8,495.8z M18.3,394.3c0,0.9,0,0.9,0,1.7c0,28.2,6,55.5,18.8,81.1
		c16.2-6.8,26.5-22.2,26.5-39.3C63.5,413.1,43,393.4,18.3,394.3z M393.7,353.3H18.3c-2.6,0-5.1-0.9-6.8-3.4
		c-1.7-1.7-1.7-5.1-1.7-7.7c24.7-88.7,105-151,196.3-151s171.5,62.3,196.3,151c0.9,2.6,0,5.1-1.7,7.7
		C398.9,352.5,396.3,353.3,393.7,353.3z M29.4,336.3h352.4c-24.7-75.9-96.4-128-175.8-128S55,260.3,29.4,336.3z"/>
	<path d="M206,464.3c-48.6,0-85.3-17.9-85.3-42.7c0-24.7,36.7-42.7,85.3-42.7s85.3,17.9,85.3,42.7
		C291.3,446.3,254.6,464.3,206,464.3z M206,396c-41.8,0-68.3,15.4-68.3,25.6c0,10.2,26.5,25.6,68.3,25.6s68.3-15.4,68.3-25.6
		C274.3,411.4,247.8,396,206,396z"/>
</g>
</svg>
