<?xml-stylesheet type="text/css" href="../css/custom.css"?>
<svg version="1.1" id="Layer_1" xmlns="http://www.w3.org/2000/svg" xmlns:xlink="http://www.w3.org/1999/xlink" x="0px" y="0px"
	 viewBox="0 0 48 43" style="enable-background:new 0 0 48 43;" xml:space="preserve" class="svg-criterion">
<style type="text/css">
	.st0{clip-path:url(#SVGID_2_);}
</style>
<g>
	<g>
		<defs>
			<rect id="SVGID_1_" x="0" y="-0.3" width="48" height="45.8"/>
		</defs>
		<clipPath id="SVGID_2_">
			<use xlink:href="#SVGID_1_"  style="overflow:visible;"/>
		</clipPath>
		<path class="st0" d="M47.3,9.4L44,3.6v-3c0,0,0,0,0,0c0-0.1,0-0.1,0-0.2c0-0.1,0-0.1,0-0.1c0,0,0,0,0,0c0,0,0-0.1-0.1-0.1
			c0-0.1-0.1-0.1-0.1-0.2c0,0-0.1-0.1-0.1-0.1c0,0-0.1-0.1-0.1-0.1c-0.1,0-0.1,0-0.2,0c0,0-0.1,0-0.1,0h0c0,0-0.1,0-0.1,0
			c-0.1,0-0.1,0-0.2,0c0,0,0,0,0,0L28.2,6.3c0,0,0-0.1-0.1-0.1c0,0,0-0.1-0.1-0.1c-0.1-0.2-0.3-0.4-0.4-0.6c0,0,0,0-0.1-0.1
			c-0.2-0.2-0.3-0.4-0.5-0.5c0,0,0,0,0,0c-0.2-0.2-0.4-0.3-0.6-0.4c0,0-0.1,0-0.1-0.1c-0.2-0.1-0.4-0.2-0.7-0.3c0,0-0.1,0-0.1,0
			c-0.2-0.1-0.5-0.1-0.7-0.2c0,0,0,0-0.1,0V1.4c0-0.4-0.4-0.8-0.8-0.8s-0.8,0.4-0.8,0.8v2.5c-2.3,0.4-4,2.4-4,4.7
			c0,0.5,0.1,0.9,0.2,1.3l-14.9,6c0,0,0,0,0,0c-0.1,0-0.1,0.1-0.2,0.1c0,0,0,0-0.1,0c0,0-0.1,0.1-0.1,0.2c0,0-0.1,0.1-0.1,0.1
			c0,0,0,0.1,0,0.1c0,0.1,0,0.2,0,0.2c0,0,0,0,0,0v3.2l-3.4,5.8C0.2,26.2,0,27,0,27.7c0,0,0,0,0,0.1c0,0,0,0,0,0
			c0,0.9,0.2,1.7,0.6,2.5c0.9,1.5,2.4,2.4,4.2,2.4c1.7,0,3.3-0.9,4.2-2.4c0.5-0.8,0.7-1.7,0.6-2.5c0,0,0,0,0,0c0,0,0,0,0-0.1
			c0-0.7-0.2-1.5-0.6-2.2l-3.4-5.8v-2.6l14.5-5.8c0.2,0.3,0.5,0.6,0.8,0.9l0,0c0.3,0.2,0.6,0.5,0.9,0.6c0,0,0.1,0,0.1,0.1
			c0.1,0.1,0.2,0.1,0.3,0.2c0.1,0,0.1,0,0.2,0.1c0.1,0,0.2,0.1,0.3,0.1c0.1,0,0.1,0,0.2,0c0.1,0,0.2,0,0.3,0.1v19.3h-4.8v4
			c-4,0-7.2,3.2-7.2,7.2v0.8h25.6v-0.8c0-4-3.2-7.2-7.2-7.2v-4h-4.8V13.3c0,0,0,0,0.1,0c0.2,0,0.5-0.1,0.7-0.2c0,0,0.1,0,0.1,0
			c0.2-0.1,0.5-0.2,0.7-0.3c0,0,0.1,0,0.1-0.1c0.2-0.1,0.4-0.3,0.6-0.4c0,0,0,0,0,0c0.2-0.2,0.4-0.3,0.5-0.5c0,0,0,0,0.1-0.1
			c0.2-0.2,0.3-0.4,0.4-0.6c0,0,0-0.1,0.1-0.1c0.1-0.2,0.2-0.4,0.3-0.7c0,0,0-0.1,0-0.1c0.1-0.2,0.2-0.5,0.2-0.7c0,0,0-0.1,0-0.1
			c0-0.3,0.1-0.5,0.1-0.8c0-0.3,0-0.5-0.1-0.7l13.7-6v1.8L39,9.4c-0.9,1.5-0.9,3.3,0,4.8c0.9,1.5,2.4,2.4,4.2,2.4
			c1.7,0,3.3-0.9,4.2-2.4C48.2,12.7,48.2,10.9,47.3,9.4L47.3,9.4z M4.8,31.1c-1.2,0-2.2-0.6-2.8-1.6c-0.2-0.3-0.3-0.6-0.4-1h6.3
			c-0.1,0.3-0.2,0.7-0.4,1C7,30.5,5.9,31.1,4.8,31.1L4.8,31.1z M7.8,27H1.8c0.1-0.2,0.2-0.4,0.3-0.6l2.8-4.8l2.8,4.8
			C7.7,26.5,7.8,26.8,7.8,27L7.8,27z M35.1,43H12.8c0.4-2.7,2.7-4.8,5.5-4.8h11.2C32.4,38.2,34.7,40.3,35.1,43L35.1,43z M28,36.6h-8
			v-2.4h8V36.6z M24,5.4c1.3,0,2.4,0.8,2.9,1.9L27,7.6c0.1,0.2,0.1,0.3,0.1,0.5c0,0.2,0,0.3,0,0.5c0,1.8-1.4,3.2-3.2,3.2
			c-0.2,0-0.4,0-0.6-0.1c-0.1,0-0.1,0-0.2,0c-0.1,0-0.3-0.1-0.4-0.1c0,0-0.1,0-0.1,0c-0.2-0.1-0.3-0.1-0.5-0.2
			c-0.1,0-0.1-0.1-0.2-0.1C22,11.1,21.9,11,21.9,11c-0.1-0.1-0.2-0.1-0.2-0.2c0,0,0,0,0,0c-0.2-0.2-0.3-0.4-0.5-0.7L21,9.8
			c-0.1-0.4-0.2-0.8-0.2-1.2C20.8,6.8,22.2,5.4,24,5.4L24,5.4z M43.2,5.4l2.8,4.8c0.1,0.3,0.3,0.5,0.3,0.8h-6.2
			c0.1-0.3,0.2-0.5,0.3-0.8L43.2,5.4z M43.2,15c-1.2,0-2.2-0.6-2.8-1.6c-0.1-0.3-0.3-0.5-0.3-0.8h6.2c-0.1,0.3-0.2,0.5-0.3,0.8
			C45.4,14.4,44.3,15,43.2,15L43.2,15z M43.2,15"/>
	</g>
</g>
</svg>
