<?xml-stylesheet type="text/css" href="../css/custom.css"?>
<svg version="1.1" id="Layer_1" xmlns="http://www.w3.org/2000/svg" xmlns:xlink="http://www.w3.org/1999/xlink" x="0px" y="0px"
	 viewBox="-49 141 512 512" style="enable-background:new -49 141 512 512;" xml:space="preserve" class="svg-stage">
<path d="M433.5,259.1c0-5.6-4.6-10.2-10.2-10.2h-63.5c-5.6,0-10.2,4.6-10.2,10.2V549h-26.5V287.7c0-5.6-4.6-10.2-10.2-10.2h-63.5
	c-5.6,0-10.2,4.6-10.2,10.2V549h-26.5V237.6c0-5.6-4.6-10.2-10.2-10.2H139c-5.6,0-10.2,4.6-10.2,10.2V549h-26.5V322.4
	c0-5.6-4.6-10.2-10.2-10.2H28.7c-5.6,0-10.2,4.6-10.2,10.2V549H-8.2V234.8c0-5.6-4.6-10.2-10.2-10.2s-10.2,4.6-10.2,10.2v13.1h-10.2
	c-5.6,0-10.2,4.6-10.2,10.2c0,5.6,4.6,10.2,10.2,10.2h10.2v24.6h-10.2c-5.6,0-10.2,4.6-10.2,10.2c0,5.6,4.6,10.2,10.2,10.2h10.2
	v24.6h-10.2c-5.6,0-10.2,4.6-10.2,10.2c0,5.6,4.6,10.2,10.2,10.2h10.2v24.6h-10.2c-5.6,0-10.2,4.6-10.2,10.2
	c0,5.6,4.6,10.2,10.2,10.2h10.2v24.6h-10.2c-5.6,0-10.2,4.6-10.2,10.2c0,5.6,4.6,10.2,10.2,10.2h10.2v24.6h-10.2
	c-5.6,0-10.2,4.6-10.2,10.2c0,5.6,4.6,10.2,10.2,10.2h10.2v24.6h-10.2c-5.6,0-10.2,4.6-10.2,10.2s4.6,10.2,10.2,10.2h10.2v21.1
	c0,5.6,4.6,10.2,10.2,10.2h471.2c5.6,0,10.2-4.6,10.2-10.2s-4.6-10.2-10.2-10.2h-19.3V259.1z M370,269.3h43.1V346H370V269.3z
	 M259.6,297.9h43.1V396h-43.1V297.9z M149.2,247.8h43.1v67.7h-43.1V247.8z M38.9,332.6h43.1v25.6H38.9L38.9,332.6z M38.9,549V378.6
	h43.1V549H38.9z M149.2,549V335.9h43.1V549H149.2z M259.6,549V416.4h43.1V549H259.6z M370,549V366.4h43.1V549H370z"/>
</svg>
